# xmcd
#
# Track frame offsets:
#	150
#	21661
#	46913
#	76269
#	97326
#
# Disc length: 1539 seconds
#
# Revision: 1
# Processed by: cddbd v1.5.2PL0 Copyright (c) Steve Scherf et al.
# Submitted via: audiograbber 1.83.01
#
DISCID=3c060105
DTITLE=Caitlin Cary and Matt Douglas - The Small Ponds
DYEAR=2010
DGENRE=Country
TTITLE0=Horse On A Bus
TTITLE1=These August Days
TTITLE2=Bleeding Heart
TTITLE3=Loneliness
TTITLE4=Gypsy Cards
EXTD=
EXTT0=
EXTT1=
EXTT2=
EXTT3=
EXTT4=
PLAYORDER=
